<svg xmlns="http://www.w3.org/2000/svg" viewBox="0 0 645 370" id="devices-elementor-svg">

	<!-- frame -->
    <rect id="frame" class="back-shape" fill="#000000" x="59" y="0" width="527" height="357" rx="20"></rect>

    <!-- base -->
    <rect id="base" class="back-shape" fill="#242424" x="0" y="350" width="645" height="11"></rect>

    <!-- base-tint -->
    <rect id="base" class="overlay-shape" fill="#242424" x="0" y="350" width="645" height="11"></rect>

    <!-- dent -->
    <path id="dent" class="overlay-shape" d="M277,350 L368,350 L368,354 C368,356.209139 366.202696,358 364.001926,358 L280.998074,358 C278.789999,358 277,356.204644 277,354 L277,350 Z" fill="#383838"></path>

    <!-- camera -->
    <circle id="camera" class="overlay-shape" fill="#383838" cx="323" cy="11" r="3"></circle>

    <!-- bottom -->
    <path id="bottom" class="back-shape" d="M0,361 C0,361 3.91836515,370 37.3210755,370 L320.849959,370 L324.150041,370 L607.694382,370 C641.097092,370 645,361 645,361 L0,361 Z" fill="#000000"></path>

</svg>
